<svg width="19" height="19" viewBox="0 0 19 19" fill="none" xmlns="http://www.w3.org/2000/svg">
<path d="M11.6505 7.34953L7.34953 11.6505C6.79703 11.098 6.45703 10.3415 6.45703 9.5C6.45703 7.817 7.817 6.45703 9.5 6.45703C10.3415 6.45703 11.098 6.79703 11.6505 7.34953Z" stroke="#292D32" stroke-width="1.5" stroke-linecap="round" stroke-linejoin="round"/>
<path d="M14.4479 4.20446C12.9604 3.08246 11.2604 2.47046 9.50087 2.47046C6.50034 2.47046 3.70384 4.23846 1.75734 7.29846C0.992344 8.49698 0.992344 10.5115 1.75734 11.71C2.42884 12.764 3.21084 13.6735 4.06084 14.4045" stroke="#292D32" stroke-width="1.5" stroke-linecap="round" stroke-linejoin="round"/>
<path d="M6.45703 15.9006C7.42603 16.3086 8.4545 16.5296 9.5 16.5296C12.5005 16.5296 15.297 14.7616 17.2435 11.7016C18.0085 10.5031 18.0085 8.48857 17.2435 7.29003C16.963 6.84803 16.657 6.43153 16.3425 6.04053" stroke="#292D32" stroke-width="1.5" stroke-linecap="round" stroke-linejoin="round"/>
<path d="M12.4829 10.095C12.2619 11.2935 11.2844 12.271 10.0859 12.492" stroke="#292D32" stroke-width="1.5" stroke-linecap="round" stroke-linejoin="round"/>
<path d="M7.3495 11.6505L1 18" stroke="#292D32" stroke-width="1.5" stroke-linecap="round" stroke-linejoin="round"/>
<path d="M17.9979 1L11.6484 7.3495" stroke="#292D32" stroke-width="1.5" stroke-linecap="round" stroke-linejoin="round"/>
</svg>
