<svg width="19" height="17" viewBox="0 0 19 17" fill="none" xmlns="http://www.w3.org/2000/svg">
<path d="M12.6083 8.50423C12.6083 10.2242 11.2185 11.6141 9.49849 11.6141C7.77852 11.6141 6.38867 10.2242 6.38867 8.50423C6.38867 6.78425 7.77852 5.39441 9.49849 5.39441C11.2185 5.39441 12.6083 6.78425 12.6083 8.50423Z" stroke="#292D32" stroke-width="1.5" stroke-linecap="round" stroke-linejoin="round"/>
<path d="M9.50001 15.6882C12.5664 15.6882 15.4244 13.8814 17.4136 10.7542C18.1954 9.52934 18.1954 7.47058 17.4136 6.24572C15.4244 3.11849 12.5664 1.31165 9.50001 1.31165C6.43356 1.31165 3.57562 3.11849 1.58636 6.24572C0.804548 7.47058 0.804548 9.52934 1.58636 10.7542C3.57562 13.8814 6.43356 15.6882 9.50001 15.6882Z" stroke="#292D32" stroke-width="1.5" stroke-linecap="round" stroke-linejoin="round"/>
</svg>
